<svg width="47" height="48" viewBox="0 0 47 48" fill="none" xmlns="http://www.w3.org/2000/svg">
<path d="M12.095 40.45C11.7559 40.4904 11.4404 40.6445 11.2 40.887C10.9596 41.1296 10.8084 41.4465 10.771 41.786C10.771 41.808 10.771 41.831 10.767 41.853V41.831C10.764 41.871 10.762 41.911 10.762 41.951V46.491C10.7619 46.6894 10.7226 46.8859 10.6465 47.0692C10.5704 47.2525 10.4588 47.419 10.3183 47.5591C10.1778 47.6993 10.011 47.8104 9.82754 47.886C9.64406 47.9616 9.44746 48.0004 9.249 48H1.513C1.31092 48 1.11092 47.9592 0.925 47.88C0.651604 47.7647 0.418149 47.5715 0.253681 47.3245C0.0892137 47.0776 0.000994565 46.7877 0 46.491L0 23.4C0.005 16.103 3.344 9.58798 8.578 5.29898L8.583 5.29398L8.871 5.06198L8.888 5.04898C9.081 4.89598 9.276 4.74698 9.474 4.60198L9.525 4.56398C9.613 4.49898 9.701 4.43498 9.79 4.37198L9.819 4.35098C9.916 4.28098 10.015 4.21198 10.114 4.14398L10.167 4.10798L10.41 3.93998L10.482 3.89198C10.728 3.72898 10.977 3.57098 11.23 3.41598L11.24 3.40998C11.39 3.31798 11.541 3.22698 11.696 3.13898L11.709 3.13198C11.863 3.04198 12.019 2.95498 12.176 2.86898L12.181 2.86598C14.2712 1.72256 16.5249 0.907683 18.863 0.449982H18.872L19.122 0.401982L19.154 0.396982C19.232 0.381982 19.311 0.367982 19.389 0.354982L19.438 0.345982L19.662 0.309982L19.726 0.299982L19.936 0.267982L20.013 0.256982C20.08 0.246982 20.146 0.236982 20.213 0.228982L20.3 0.216982L20.492 0.191982L20.59 0.180982L20.773 0.158982L20.882 0.147982L21.054 0.129982L21.171 0.119982L21.339 0.103982L21.465 0.0939819L21.626 0.0809819L21.76 0.0709819L21.915 0.0609819L22.058 0.0529819L22.206 0.0449819C22.256 0.0429819 22.307 0.0399819 22.358 0.0389819L22.498 0.0329819L22.665 0.0269819L22.791 0.0239819L22.982 0.0189819H23.381C36.298 0.0189819 46.756 10.488 46.761 23.406V46.49C46.7605 46.8905 46.6011 47.2744 46.3178 47.5575C46.0345 47.8406 45.6505 47.9997 45.25 48H37.514C37.1131 48.0002 36.7284 47.8414 36.4446 47.5582C36.1607 47.2751 36.0008 46.8909 36 46.49V41.95C35.9992 41.5494 35.8396 41.1655 35.5561 40.8824C35.2727 40.5994 34.8886 40.4402 34.488 40.44H23.38L12.094 40.45H12.095ZM36 22.438C36 15.468 30.351 9.81898 23.38 9.81898C22.3168 9.81904 21.2578 9.95276 20.228 10.217C18.3431 10.7034 16.5969 11.6208 15.127 12.897C13.7569 14.0805 12.6582 15.5455 11.9058 17.1922C11.1534 18.8389 10.7649 20.6285 10.767 22.439C10.767 29.409 16.413 35.057 23.38 35.057C30.351 35.057 36 29.409 36 22.438Z" fill="white"/>
</svg>
